<?xml version="1.0" ?><!DOCTYPE svg  PUBLIC '-//W3C//DTD SVG 1.1//EN'  'http://www.w3.org/Graphics/SVG/1.1/DTD/svg11.dtd'><svg enable-background="new 0 0 128 128" id="Слой_1" version="1.1" viewBox="0 0 128 128" xml:space="preserve" xmlns="http://www.w3.org/2000/svg" xmlns:xlink="http://www.w3.org/1999/xlink"><g><g><path d="M61,124H25.9c-8.3,0-15-6.7-15-15V19c0-8.3,6.7-15,15-15H61c8.3,0,15,6.7,15,15v90    C76,117.3,69.3,124,61,124z" fill="#72B6D3"/></g><g><path d="M61,125.2H25.9c-9,0-16.2-7.3-16.2-16.2V19c0-9,7.3-16.2,16.2-16.2H61c9,0,16.2,7.3,16.2,16.2v90    C77.2,118,69.9,125.2,61,125.2z M25.9,5.2c-7.6,0-13.8,6.2-13.8,13.8v90c0,7.6,6.2,13.8,13.8,13.8H61c7.6,0,13.8-6.2,13.8-13.8V19    c0-7.6-6.2-13.8-13.8-13.8H25.9z" fill="#62355C"/></g><g><path d="M18.9,22.8H68c1.6,0,2.9,1.3,2.9,2.9v76.6c0,1.6-1.3,2.9-2.9,2.9H18.9c-1.6,0-2.9-1.3-2.9-2.9V25.7    C16,24.1,17.3,22.8,18.9,22.8z" fill="#FFFFFF"/></g><path d="M76,43.9H49.7c-6,0-10.9,4.9-10.9,10.9V93c0,6,4.9,10.9,10.9,10.9H76V43.9z" fill="#593055" opacity="0.2"/><g><path d="M68,106.5H18.9c-2.3,0-4.1-1.9-4.1-4.1V25.7c0-2.3,1.9-4.1,4.1-4.1H68c2.3,0,4.1,1.9,4.1,4.1v76.6    C72.2,104.6,70.3,106.5,68,106.5z M18.9,24.1c-0.9,0-1.6,0.7-1.6,1.6v76.6c0,0.9,0.7,1.6,1.6,1.6H68c0.9,0,1.6-0.7,1.6-1.6V25.7    c0-0.9-0.7-1.6-1.6-1.6H18.9z" fill="#62355C"/></g><circle cx="43.5" cy="114.5" fill="#593055" opacity="0.2" r="5.1"/><g><path d="M43.5,120.8c-3.5,0-6.3-2.8-6.3-6.3s2.8-6.3,6.3-6.3s6.3,2.8,6.3,6.3S46.9,120.8,43.5,120.8z M43.5,110.7    c-2.1,0-3.8,1.7-3.8,3.8s1.7,3.8,3.8,3.8s3.8-1.7,3.8-3.8S45.6,110.7,43.5,110.7z" fill="#62355C"/></g><g><path d="    M46.1,99.9" fill="none" stroke="#404243" stroke-linecap="round" stroke-linejoin="round" stroke-miterlimit="10" stroke-width="2.5"/></g><g><circle cx="35" cy="13.4" fill="#62355C" r="1.5"/></g><g><path d="M52.7,14.7H40.1c-0.7,0-1.2-0.6-1.2-1.2s0.6-1.2,1.2-1.2h12.6c0.7,0,1.2,0.6,1.2,1.2S53.4,14.7,52.7,14.7z    " fill="#62355C"/></g><g><path d="    M46.1,81.4" fill="none" stroke="#404243" stroke-linecap="round" stroke-linejoin="round" stroke-miterlimit="10" stroke-width="2.5"/></g><g><path d="M106.2,94.9H40.7c-6,0-10.9-4.9-10.9-10.9V45.8c0-6,4.9-10.9,10.9-10.9h65.5c6,0,10.9,4.9,10.9,10.9V84    C117.1,90,112.2,94.9,106.2,94.9z" fill="#FFFFFF"/></g><g><polyline fill="#FFFFFF" points="117.1,65.4 117.1,55.6 29.8,55.6 29.8,65.4   "/></g><g><polyline fill="#938993" points="117.1,55.6 117.1,45.8 29.8,45.8 29.8,55.6 117.1,55.6   "/></g><g><path d="M117.1,66.7H29.8c-0.7,0-1.2-0.6-1.2-1.2s0.6-1.2,1.2-1.2h87.3c0.7,0,1.2,0.6,1.2,1.2    S117.8,66.7,117.1,66.7z" fill="#62355C"/></g><g><path d="M117.1,56.9H29.8c-0.7,0-1.2-0.6-1.2-1.2s0.6-1.2,1.2-1.2h87.3c0.7,0,1.2,0.6,1.2,1.2    S117.8,56.9,117.1,56.9z" fill="#62355C"/></g><g><path d="    M117.1,55.6" fill="none" stroke="#373636" stroke-linecap="round" stroke-linejoin="round" stroke-miterlimit="10" stroke-width="2.5"/></g><g><circle cx="102.9" cy="79.6" fill="#FEE444" r="7.5"/></g><g><path d="M102.9,88.4c-4.8,0-8.8-3.9-8.8-8.8s3.9-8.8,8.8-8.8s8.8,3.9,8.8,8.8S107.7,88.4,102.9,88.4z M102.9,73.4    c-3.4,0-6.2,2.8-6.2,6.2s2.8,6.2,6.2,6.2s6.2-2.8,6.2-6.2S106.3,73.4,102.9,73.4z" fill="#62355C"/></g><g><circle cx="90.9" cy="79.6" fill="#F37865" r="7.5"/></g><g><path d="M90.9,88.4c-4.8,0-8.8-3.9-8.8-8.8s3.9-8.8,8.8-8.8s8.8,3.9,8.8,8.8S95.7,88.4,90.9,88.4z M90.9,73.4    c-3.4,0-6.2,2.8-6.2,6.2s2.8,6.2,6.2,6.2s6.2-2.8,6.2-6.2S94.3,73.4,90.9,73.4z" fill="#62355C"/></g><g><g><path d="M106.2,96.1H40.7c-6.7,0-12.2-5.5-12.2-12.2V45.8c0-6.7,5.5-12.2,12.2-12.2h65.5     c6.7,0,12.2,5.5,12.2,12.2V84C118.3,90.7,112.9,96.1,106.2,96.1z M40.7,36.1c-5.3,0-9.7,4.3-9.7,9.7V84c0,5.3,4.3,9.7,9.7,9.7     h65.5c5.3,0,9.7-4.3,9.7-9.7V45.8c0-5.3-4.3-9.7-9.7-9.7H40.7z" fill="#62355C"/></g><g><path d="M75.8,61.8H35.4c-0.7,0-1.2-0.6-1.2-1.2s0.6-1.2,1.2-1.2h40.4c0.7,0,1.2,0.6,1.2,1.2S76.5,61.8,75.8,61.8     z" fill="#62355C"/></g><g><path d="M98.4,61.8H87.5c-0.7,0-1.2-0.6-1.2-1.2s0.6-1.2,1.2-1.2h10.9c0.7,0,1.2,0.6,1.2,1.2S99.1,61.8,98.4,61.8     z" fill="#62355C"/></g><g><path d="M69.1,75.4H42.9c-0.7,0-1.2-0.6-1.2-1.2s0.6-1.2,1.2-1.2h26.2c0.7,0,1.2,0.6,1.2,1.2S69.8,75.4,69.1,75.4     z" fill="#62355C"/></g><g><path d="M69.1,80.9H42.9c-0.7,0-1.2-0.6-1.2-1.2s0.6-1.2,1.2-1.2h26.2c0.7,0,1.2,0.6,1.2,1.2S69.8,80.9,69.1,80.9     z" fill="#62355C"/></g><g><path d="M69.1,86.3H42.9c-0.7,0-1.2-0.6-1.2-1.2s0.6-1.2,1.2-1.2h26.2c0.7,0,1.2,0.6,1.2,1.2S69.8,86.3,69.1,86.3     z" fill="#62355C"/></g><g><path d="M117.1,56.9H29.8c-0.7,0-1.2-0.6-1.2-1.2s0.6-1.2,1.2-1.2h87.3c0.7,0,1.2,0.6,1.2,1.2     S117.8,56.9,117.1,56.9z" fill="#62355C"/></g><g><path d="M117.1,47.1H29.8c-0.7,0-1.2-0.6-1.2-1.2s0.6-1.2,1.2-1.2h87.3c0.7,0,1.2,0.6,1.2,1.2     S117.8,47.1,117.1,47.1z" fill="#62355C"/></g></g></g></svg>