<?xml version="1.0" ?><!DOCTYPE svg  PUBLIC '-//W3C//DTD SVG 1.1//EN'  'http://www.w3.org/Graphics/SVG/1.1/DTD/svg11.dtd'><svg enable-background="new 0 0 128 128" id="Слой_1" version="1.1" viewBox="0 0 128 128" xml:space="preserve" xmlns="http://www.w3.org/2000/svg" xmlns:xlink="http://www.w3.org/1999/xlink"><g><g><polygon fill="#EEC82D" points="63.8,69.9 22.6,91.8 22.6,47.5 63.8,23 104.4,47.5 104.4,91.8   "/></g><g><polygon fill="#121519" points="63.8,23 104.4,47.5 104.4,91.8 63.8,69.9   "/></g><g><polygon fill="#121519" points="63.8,23 22.6,47.5 22.6,91.8 63.8,69.9   "/></g><g><polygon fill="#F5CC24" points="63.8,69.4 22.6,47.4 22.6,91.8 63.8,116.3 104.4,91.8 104.4,47.4   "/></g><g><polygon fill="#D6AB7F" points="63.8,69.4 22.6,47.4 22.6,91.8 63.8,116.3 104.4,91.8 104.4,47.4   "/></g><g><path d="M63.8,117.3c-0.2,0-0.4,0-0.5-0.1L22.1,92.7c-0.3-0.2-0.5-0.5-0.5-0.9V47.4c0-0.4,0.2-0.7,0.5-0.9    c0.3-0.2,0.7-0.2,1,0l40.7,21.7l40.1-21.7c0.3-0.2,0.7-0.2,1,0c0.3,0.2,0.5,0.5,0.5,0.9v44.4c0,0.4-0.2,0.7-0.5,0.9l-40.6,24.5    C64.2,117.2,64,117.3,63.8,117.3z M23.6,91.3l40.2,23.9l39.6-23.9V49.1L64.3,70.3c-0.3,0.2-0.7,0.2-0.9,0L23.6,49.1V91.3z" fill="#62355C"/></g><g opacity="0.2"><polygon fill="#121519" points="63.8,116.3 104.4,91.8 104.4,47.4 63.8,69.4   "/></g><g><path d="M63.8,117.3c-0.2,0-0.3,0-0.5-0.1c-0.3-0.2-0.5-0.5-0.5-0.9V69.4c0-0.4,0.2-0.7,0.5-0.9l40.6-22    c0.3-0.2,0.7-0.2,1,0c0.3,0.2,0.5,0.5,0.5,0.9v44.4c0,0.4-0.2,0.7-0.5,0.9l-40.6,24.5C64.2,117.2,64,117.3,63.8,117.3z M64.8,70    v44.5l38.6-23.2V49.1L64.8,70z" fill="#62355C"/></g><g opacity="0.1"><polygon fill="#121519" points="31.6,76.1 63.8,94.3 63.8,69.4 22.6,47.4   "/></g><g><polygon fill="#FFFFFF" points="4,58.1 22.6,47.4 63.8,69.4 44,80.7   "/></g><g><polygon fill="#FFFFFF" points="4,36.8 22.6,47.5 63.8,23 44.1,11.7   "/></g><g><path d="M22.6,48.5c-0.2,0-0.3,0-0.5-0.1L3.5,37.6C3.2,37.5,3,37.1,3,36.8c0-0.4,0.2-0.7,0.5-0.9l40.1-25.1    c0.3-0.2,0.7-0.2,1,0l19.8,11.3c0.3,0.2,0.5,0.5,0.5,0.9c0,0.4-0.2,0.7-0.5,0.9L23.1,48.3C23,48.4,22.8,48.5,22.6,48.5z M5.9,36.7    l16.7,9.6L61.9,23L44.1,12.9L5.9,36.7z" fill="#62355C"/></g><g opacity="0.1"><polygon fill="#121519" points="82.4,87.3 104.4,76 104.4,47.5 64.1,69.2 63.8,69.4   "/></g><g><polygon fill="#FFFFFF" points="63.8,69.4 82.4,80.1 124,58.7 104.4,47.5   "/></g><g><path d="M44,81.7c-0.2,0-0.3,0-0.5-0.1L3.5,59C3.2,58.8,3,58.5,3,58.1s0.2-0.7,0.5-0.9l18.6-10.7    c0.3-0.2,0.7-0.2,1,0l41.2,22c0.3,0.2,0.5,0.5,0.5,0.9s-0.2,0.7-0.5,0.9L44.5,81.6C44.4,81.7,44.2,81.7,44,81.7z M6,58.1l38,21.4    l17.7-10.1L22.6,48.6L6,58.1z" fill="#62355C"/></g><g><path d="M82.4,81.1c-0.2,0-0.3,0-0.5-0.1L63.3,70.3c-0.3-0.2-0.5-0.5-0.5-0.9c0-0.4,0.2-0.7,0.5-0.9l40.6-22    c0.3-0.2,0.7-0.2,1,0l19.6,11.3c0.3,0.2,0.5,0.5,0.5,0.9c0,0.4-0.2,0.7-0.5,0.9L82.9,81C82.7,81.1,82.6,81.1,82.4,81.1z     M65.9,69.4L82.5,79l39.5-20.3l-17.6-10.1L65.9,69.4z" fill="#62355C"/></g><g><polygon fill="#FFFFFF" points="63.8,23 82.5,12.3 124,36.2 104.4,47.5   "/></g><g><path d="M104.4,48.5c-0.2,0-0.4,0-0.5-0.1L63.3,23.9c-0.3-0.2-0.5-0.5-0.5-0.9s0.2-0.7,0.5-0.9L82,11.5    c0.3-0.2,0.7-0.2,1,0l41.5,23.9c0.3,0.2,0.5,0.5,0.5,0.9s-0.2,0.7-0.5,0.9l-19.6,11.3C104.7,48.4,104.5,48.5,104.4,48.5z M65.8,23    l38.6,23.3L122,36.2L82.5,13.5L65.8,23z" fill="#62355C"/></g><g><polygon fill="#65C5B4" points="63.8,15 22.6,37 22.6,47.5 63.8,69.4 104.4,47.5 104.4,36.9   "/></g><g><path d="M63.8,70.4c-0.2,0-0.3,0-0.5-0.1L22.2,48.4c-0.3-0.2-0.5-0.5-0.5-0.9V37c0-0.4,0.2-0.7,0.5-0.9l41.2-22    c0.3-0.2,0.7-0.2,0.9,0L104.8,36c0.3,0.2,0.5,0.5,0.5,0.9v10.6c0,0.4-0.2,0.7-0.5,0.9l-40.6,22C64.1,70.4,64,70.4,63.8,70.4z     M23.6,46.9l40.2,21.3l39.6-21.4v-9.4L63.8,16.2L23.6,37.6V46.9z" fill="#62355C"/></g><g opacity="0.1"><polygon fill="#121519" points="63.8,58.9 22.6,37 22.6,47.5 63.8,69.4   "/></g><g opacity="0.2"><polygon fill="#121519" points="63.8,58.9 104.4,36.9 104.4,47.5 63.8,69.4   "/></g></g></svg>