<?xml version="1.0" ?><!DOCTYPE svg  PUBLIC '-//W3C//DTD SVG 1.1//EN'  'http://www.w3.org/Graphics/SVG/1.1/DTD/svg11.dtd'><svg enable-background="new 0 0 128 128" id="Слой_1" version="1.1" viewBox="0 0 128 128" xml:space="preserve" xmlns="http://www.w3.org/2000/svg" xmlns:xlink="http://www.w3.org/1999/xlink"><g><g><g><path d="M105.2,32.3V109c0,8.3-6.7,15-15,15H37.8c-8.3,0-15-6.7-15-15V32.3c0-8.3,6.7-15,15-15h52.4     C98.5,17.3,105.2,24,105.2,32.3z" fill="#FFFFFF"/></g><g><g><g><path d="M62.8,114.6c-2,0-3.9-1-5.1-2.6L45.1,94.3c-2-2.8-1.4-6.8,1.5-8.8c2.8-2,6.8-1.4,8.8,1.5l7.3,10.2       l15.1-22.7c1.9-2.9,5.8-3.7,8.7-1.7c2.9,1.9,3.7,5.8,1.7,8.7L68,111.8c-1.1,1.7-3.1,2.8-5.1,2.8       C62.9,114.6,62.8,114.6,62.8,114.6z" fill="#AF66AA"/></g></g><g><g><path d="M62.8,115.8c-2.4,0-4.7-1.2-6.1-3.2L44,95c-1.2-1.6-1.6-3.6-1.3-5.6c0.3-2,1.4-3.7,3.1-4.9       c1.3-0.9,2.8-1.4,4.4-1.4c2.4,0,4.7,1.2,6.2,3.2l6.2,8.7l14.1-21.1c1.4-2.1,3.8-3.4,6.3-3.4c1.5,0,2.9,0.4,4.2,1.3       c1.7,1.1,2.8,2.8,3.2,4.8s0,4-1.1,5.7l-20.2,30.3c-1.4,2.1-3.7,3.3-6.2,3.4L62.8,115.8z M50.2,85.6c-1.1,0-2.1,0.3-2.9,0.9       c-1.1,0.8-1.8,1.9-2,3.3c-0.2,1.3,0.1,2.7,0.9,3.8l12.6,17.6c0.9,1.3,2.5,2.1,4.1,2.1l0.1,0c1.7,0,3.2-0.9,4.1-2.2l20.2-30.3       c0.7-1.1,1-2.5,0.8-3.8c-0.3-1.3-1-2.5-2.2-3.2C84.9,73.3,84,73,83,73c-1.7,0-3.3,0.8-4.2,2.2L63.7,97.9       c-0.2,0.3-0.6,0.5-1,0.6c-0.4,0-0.8-0.2-1-0.5l-7.3-10.2C53.3,86.4,51.8,85.6,50.2,85.6z" fill="#62355C"/></g></g></g><g><path d="M90.2,125.2H37.8c-9,0-16.2-7.3-16.2-16.2V32.3c0-9,7.3-16.2,16.2-16.2h52.4c9,0,16.2,7.3,16.2,16.2V109     C106.5,118,99.2,125.2,90.2,125.2z M37.8,18.6c-7.6,0-13.8,6.2-13.8,13.8V109c0,7.6,6.2,13.8,13.8,13.8h52.4     c7.6,0,13.8-6.2,13.8-13.8V32.3c0-7.6-6.2-13.8-13.8-13.8H37.8z" fill="#62355C"/></g><g><path d="M91,33.6H37c-0.7,0-1.2-0.6-1.2-1.2s0.6-1.2,1.2-1.2h54c0.7,0,1.2,0.6,1.2,1.2S91.7,33.6,91,33.6z" fill="#62355C"/></g><g><path d="M91,48.6H37c-0.7,0-1.2-0.6-1.2-1.2s0.6-1.2,1.2-1.2h54c0.7,0,1.2,0.6,1.2,1.2S91.7,48.6,91,48.6z" fill="#62355C"/></g><g><path d="M91,63.6H37c-0.7,0-1.2-0.6-1.2-1.2s0.6-1.2,1.2-1.2h54c0.7,0,1.2,0.6,1.2,1.2S91.7,63.6,91,63.6z" fill="#62355C"/></g></g></g></svg>