<?xml version="1.0" ?><!DOCTYPE svg  PUBLIC '-//W3C//DTD SVG 1.1//EN'  'http://www.w3.org/Graphics/SVG/1.1/DTD/svg11.dtd'><svg enable-background="new 0 0 128 128" id="Слой_1" version="1.1" viewBox="0 0 128 128" xml:space="preserve" xmlns="http://www.w3.org/2000/svg" xmlns:xlink="http://www.w3.org/1999/xlink"><g><g><g><path d="M34,4l-9.7,6.6c-6.8,4.6-8.6,13.9-4,20.7L46,70l29.5-4.5L34,4z" fill="#F37865"/></g></g></g><g><g><g><g><path d="M31.3,10.6l4.9-3.4L34,4l-9.7,6.6c-6.8,4.6-8.6,13.9-4,20.7L46,70l6.4-1L27.2,31.4      C22.7,24.5,24.5,15.3,31.3,10.6z" fill="#FFFFFF"/></g></g></g></g><g><g><g><path d="M94.2,4l9.7,6.6c6.8,4.6,8.6,13.9,4,20.7L82.2,70l-29.5-4.5L94.2,4z" fill="#F37865"/></g></g></g><g><g><g><polygon fill="#E5E6E6" points="34,4 94,4 77.9,28.1 50.3,28.1    "/></g></g></g><g><g><g><polygon fill="#C05B52" points="34,4 94,4 77.9,28.1 50.3,28.1    "/></g></g></g><g><g><g><circle cx="64" cy="94" fill="#FEE444" r="30"/></g></g></g><g><g><g><g><path d="M40,94c0-15.6,11.8-28.3,27-29.9c-1-0.1-2-0.1-3-0.1c-16.6,0-30,13.4-30,30s13.4,30,30,30      c1,0,2-0.1,3-0.1C51.8,122.3,40,109.6,40,94z" fill="#FFFFFF"/></g></g></g></g><g><g><g><path d="M104.1,9.4l-9.2-6.6c0,0,0,0,0,0c0,0,0,0,0,0c0,0,0,0,0,0c0,0,0,0-0.1,0c0,0,0,0-0.1,0c0,0-0.1,0-0.1-0.1     c0,0,0,0,0,0c-0.1,0-0.1,0-0.2,0c0,0-0.1,0-0.1,0c0,0,0,0,0,0c-0.1,0-0.1,0-0.2,0c0,0-0.1,0-0.1,0c0,0,0,0,0,0H34c0,0,0,0,0,0     c0,0,0,0,0,0c-0.1,0-0.2,0-0.2,0c0,0,0,0,0,0c0,0-0.1,0-0.1,0c-0.1,0-0.1,0-0.2,0.1c0,0,0,0,0,0c-0.1,0-0.1,0.1-0.2,0.1     c0,0,0,0-0.1,0c0,0,0,0,0,0c0,0,0,0,0,0c0,0,0,0,0,0l-9.7,6.6C16,14.5,14,24.7,19,32.2l25,37.5C37,75.5,32.5,84.2,32.5,94     c0,17.4,14.1,31.5,31.5,31.5S95.5,111.4,95.5,94c0-10-4.7-18.9-11.9-24.7l24.7-37.4C113.2,24.5,111.4,14.6,104.1,9.4z M52.9,29.6     h22.2L64,46.3L52.9,29.6z M77,26.7c-0.2-0.1-0.3-0.1-0.5-0.1H51.3c-0.1,0-0.2,0-0.3,0L36.8,5.5h54.4L77,26.7z M21.5,30.5     C17.4,24.4,19,16,25.1,11.9l8.5-5.8l29.2,43.7c0,0,0,0,0,0l0.1,0.1l9,13.5c-2.5-0.6-5.1-1-7.9-1c-6.5,0-12.6,2-17.6,5.4     L21.5,30.5z M92.5,94c0,15.7-12.8,28.5-28.5,28.5S35.5,109.7,35.5,94S48.3,65.5,64,65.5S92.5,78.3,92.5,94z M105.8,30.2     L81.1,67.6c-1.3-0.9-2.5-1.5-4-2.2l-0.5-0.7L65.8,49L94.4,6.1l8,5.7C108.3,16.1,109.8,24.2,105.8,30.2z" fill="#62355C"/></g></g></g><g><g><g><path d="M42.5,94c0,0.8,0.7,1.5,1.5,1.5s1.5-0.7,1.5-1.5c0-10.2,8.3-18.5,18.5-18.5c0.8,0,1.5-0.7,1.5-1.5     s-0.7-1.5-1.5-1.5C52.1,72.5,42.5,82.1,42.5,94z" fill="#62355C"/></g></g></g><g><g><g><path d="M62.5,114c0,0.8,0.7,1.5,1.5,1.5c11.9,0,21.5-9.6,21.5-21.5c0-0.8-0.7-1.5-1.5-1.5s-1.5,0.7-1.5,1.5     c0,10.2-8.3,18.5-18.5,18.5C63.2,112.5,62.5,113.2,62.5,114z" fill="#62355C"/></g></g></g></svg>