<?xml version="1.0" ?><!DOCTYPE svg  PUBLIC '-//W3C//DTD SVG 1.1//EN'  'http://www.w3.org/Graphics/SVG/1.1/DTD/svg11.dtd'><svg enable-background="new 0 0 128 128" id="Слой_1" version="1.1" viewBox="0 0 128 128" xml:space="preserve" xmlns="http://www.w3.org/2000/svg" xmlns:xlink="http://www.w3.org/1999/xlink"><path d="M110.1,118l0-6.4c-0.9-1.8-91.2-1.8-92.2,0l0,6.8l0,0c0.1,3.8,5.9,6.8,14.7,6.8h62.8  C104.5,125.2,110.4,122,110.1,118L110.1,118z" fill="#ADA2B5"/><path d="M110.1,111.6c-0.9-1.8-91.2-1.8-92.2,0l0,6.8  c0.1,3.8,5.9,6.8,14.7,6.8h62.8c9.1,0,15-3.2,14.7-7.2L110.1,111.6z" fill="none" stroke="#62345B" stroke-miterlimit="10" stroke-width="2.5"/><g><g><path d="M95.4,118.2H32.6c-10.4,0-16.6-4.2-14.1-8.9l16.4-31.1c0.9-1.8,6.3-3.1,12-3.1h34.4c5.7,0,11,1.4,12,3.1    l16.4,31.1C112,114,105.8,118.2,95.4,118.2z" fill="#ECEBEC"/></g><g><path d="M95.4,119.4H32.6c-7.3,0-13.1-2.1-15.2-5.4c-1-1.7-1-3.5-0.1-5.3l16.4-31.1c1.4-2.6,7.7-3.8,13.1-3.8h34.4    c5.3,0,11.7,1.2,13.1,3.8l16.4,31.1c0.9,1.8,0.9,3.7-0.1,5.3C108.6,117.4,102.7,119.4,95.4,119.4z M46.8,76.2    c-6.3,0-10.4,1.6-10.9,2.5l-16.4,31.1c-0.5,1-0.5,2,0,2.9c1.2,1.9,5.3,4.2,13,4.2h62.8c7.7,0,11.8-2.3,13-4.2    c0.5-0.9,0.6-1.9,0-2.9L92.1,78.7c-0.5-0.9-4.6-2.5-10.9-2.5H46.8z" fill="#62345B"/></g><g opacity="0.2"><path d="M88.4,105.1l-48.8,0c-6,0-9.9-2.1-8.9-4.6l9.4-21.9c0.5-1.2,4.1-2.2,8-2.2h31.8c3.9,0,7.5,0.9,8,2.2    l9.4,21.9C98.3,103,94.4,105.1,88.4,105.1z" fill="#62345B"/></g><g opacity="0.2"><path d="M87.6,87.7c0,4.2-6.8,7.6-15.2,7.6H64c0-4.2,14.1-14.8,16.4-14.1C84.7,82.6,87.6,85,87.6,87.7z" fill="#62345B"/></g><g><path d="M88.4,106.4H39.6c-4.7,0-8.4-1.3-9.7-3.3c-0.6-1-0.7-2-0.3-3.1L39,78.1c1-2.3,6.2-2.9,9.1-2.9h31.8    c2.9,0,8.2,0.6,9.1,2.9l9.4,21.9c0.4,1,0.3,2.1-0.3,3.1C96.8,105.1,93.1,106.4,88.4,106.4z M48.1,77.7c-3.8,0-6.5,0.9-6.9,1.4    L31.9,101c-0.1,0.3-0.1,0.5,0.1,0.7c0.7,1,3.4,2.2,7.6,2.2h48.8c4.3,0,7-1.1,7.6-2.2c0.2-0.3,0.2-0.5,0.1-0.7l-9.4-21.9    c-0.3-0.5-3-1.4-6.8-1.4H48.1z" fill="#62345B"/></g><g opacity="0.2"><path d="M69.1,111.3c0.1,1.4-2.2,2.6-5.1,2.6s-5.3-1.2-5.1-2.6c0.1-1.3,2.4-2.4,5.1-2.4    C66.7,108.9,69,109.9,69.1,111.3z" fill="#62345B"/></g><g><path d="M98.9,38.9C98.9,19.6,83.3,4,64,4S29.1,19.6,29.1,38.9c0,0.6,0,1.2,0,1.8c0.9,19.6,16.9,43,32.6,52.6    c0.7,0.4,1.5,0.6,2.3,0.6l0,0c0.8,0,1.6-0.2,2.2-0.6c15.6-9.7,31.6-33,32.6-52.6C98.9,40.1,98.9,39.5,98.9,38.9z" fill="#EE7F8F"/></g><g opacity="0.2"><path d="M64,4c-1,0-2.1,0.1-3.1,0.1c17.8,1.6,31.8,16.5,31.8,34.8c0,0.6,0,1.2,0,1.8C91.8,60,76.3,82.9,60.9,92.9    c0.3,0.2,0.5,0.3,0.8,0.5c0.7,0.4,1.5,0.6,2.3,0.6c0.8,0,1.6-0.2,2.2-0.6c15.6-9.7,31.6-33,32.6-52.6c0-0.6,0-1.2,0-1.8    C98.9,19.6,83.3,4,64,4z" fill="#62345B"/></g><g><path d="M64,95.2c-1.1,0-2.1-0.3-2.9-0.8c-15.2-9.4-32.1-32.5-33.2-53.6c0-0.6,0-1.2,0-1.9    C27.8,19,44.1,2.8,64,2.8s36.2,16.2,36.2,36.2c0,0.6,0,1.3,0,1.9c-1,21.1-18,44.3-33.2,53.6C66.1,95,65.1,95.2,64,95.2    C64.1,95.2,64,95.2,64,95.2z M64,5.2c-18.6,0-33.7,15.1-33.7,33.7c0,0.6,0,1.2,0,1.8c1,19.7,17.3,42.6,32,51.6    c0.5,0.3,1,0.4,1.6,0.4V94l0-1.3c0.6,0,1.1-0.2,1.6-0.4c14.7-9.1,31-32,32-51.6c0-0.6,0-1.2,0-1.8C97.7,20.3,82.6,5.2,64,5.2z" fill="#62345B"/></g><g><circle cx="64" cy="38.9" fill="#FFFFFF" r="27.6"/></g><g><path d="M64,67.7c-15.9,0-28.8-12.9-28.8-28.8S48.1,10.1,64,10.1S92.8,23,92.8,38.9S79.9,67.7,64,67.7z M64,12.6    c-14.5,0-26.3,11.8-26.3,26.3S49.5,65.2,64,65.2s26.3-11.8,26.3-26.3S78.5,12.6,64,12.6z" fill="#62345B"/></g><g><path d="M51.2,38.3l-1.4-0.3c-2.1-0.4-2.5-1.1-2.5-2.1c0-1.2,1.1-2,2.8-2c1.5,0,2.5,0.6,2.8,1.9    c0.2,0.5,0.6,0.8,1.1,0.8c0.1,0,0.3,0,0.4,0c0.6-0.1,1-0.6,1-1.1c0-0.1,0-0.3-0.1-0.4c-0.5-1.5-1.8-3.4-5.3-3.4    c-3.9,0-5.3,2.3-5.3,4.2c0,2.5,1.3,3.8,4.3,4.4l1.5,0.3c2.3,0.5,2.8,1.1,2.8,2.3c0,1.4-1.2,2.3-3.1,2.3c-2.5,0-3-1.2-3.3-2.4    c-0.1-0.5-0.6-0.8-1.2-0.8c-0.1,0-0.2,0-0.4,0c-0.6,0.1-1,0.6-1,1.1c0,0.1,0,0.2,0.1,0.3c0.6,2,1.7,4,5.9,4c3.4,0,5.5-1.8,5.5-4.6    C56,40,54.1,38.9,51.2,38.3z" fill="#62345B"/><path d="M64,31.7c-4.2,0-6.9,3.1-6.9,7.9c0,4.8,2.7,7.9,6.9,7.9c4.2,0,6.8-3.1,6.8-7.9S68.2,31.7,64,31.7z     M64,45.2c-2.6,0-4.3-2.2-4.3-5.6c0-3.5,1.7-5.6,4.3-5.6c2.6,0,4.3,2.2,4.3,5.5C68.3,43.1,66.7,45.2,64,45.2z" fill="#62345B"/><path d="M78.7,38.3l-1.4-0.3c-2.1-0.4-2.5-1.1-2.5-2.1c0-1.2,1.1-2,2.8-2c1.5,0,2.5,0.6,2.8,1.9    c0.2,0.5,0.6,0.8,1.1,0.8c0.1,0,0.3,0,0.4,0c0.6-0.1,1-0.6,1-1.1c0-0.1,0-0.3-0.1-0.4c-0.5-1.5-1.8-3.4-5.3-3.4    c-3.9,0-5.3,2.3-5.3,4.2c0,2.5,1.3,3.8,4.3,4.4l1.5,0.3c2.3,0.5,2.8,1.1,2.8,2.3c0,1.4-1.2,2.3-3.1,2.3c-2.5,0-3-1.2-3.3-2.4    c-0.1-0.5-0.6-0.8-1.2-0.8c-0.1,0-0.2,0-0.4,0c-0.6,0.1-1,0.6-1,1.1c0,0.1,0,0.2,0.1,0.3c0.6,2,1.7,4,5.9,4c3.4,0,5.5-1.8,5.5-4.6    C83.5,40,81.6,38.9,78.7,38.3z" fill="#62345B"/></g></g></svg>