<?xml version="1.0" ?><!DOCTYPE svg  PUBLIC '-//W3C//DTD SVG 1.1//EN'  'http://www.w3.org/Graphics/SVG/1.1/DTD/svg11.dtd'><svg enable-background="new 0 0 128 128" id="Слой_1" version="1.1" viewBox="0 0 128 128" xml:space="preserve" xmlns="http://www.w3.org/2000/svg" xmlns:xlink="http://www.w3.org/1999/xlink"><g><g><path d="M109,105.2H19c-8.3,0-15-6.7-15-15V37.8c0-8.3,6.7-15,15-15h90c8.3,0,15,6.7,15,15v52.5    C124,98.5,117.3,105.2,109,105.2z" fill="#65C5B4"/></g><g opacity="0.3"><path d="M86.3,61.1c1.9,14.7-10.5,27.1-25.2,25.2C51,85.1,42.9,77,41.7,66.9c-1.9-14.7,10.5-27.1,25.2-25.2    C77,42.9,85.1,51,86.3,61.1z" fill="#F6F7F6"/></g><g><path d="M107,97.3H21c-0.7,0-1.2-0.6-1.2-1.2c0-4.1-3.4-7.5-7.5-7.5c-0.7,0-1.2-0.6-1.2-1.2V40.6    c0-0.7,0.6-1.2,1.2-1.2c4.1,0,7.5-3.4,7.5-7.5c0-0.7,0.6-1.2,1.2-1.2H107c0.7,0,1.2,0.6,1.2,1.2c0,4.1,3.4,7.5,7.5,7.5    c0.7,0,1.2,0.6,1.2,1.2v46.7c0,0.7-0.6,1.2-1.2,1.2c-4.1,0-7.5,3.4-7.5,7.5C108.2,96.8,107.6,97.3,107,97.3z M22.2,94.8h83.6    c0.6-4.5,4.1-8.1,8.7-8.7V41.8c-4.5-0.6-8.1-4.1-8.7-8.7H22.2c-0.6,4.5-4.1,8.1-8.7,8.7v44.4C18.1,86.7,21.7,90.3,22.2,94.8z" fill="#62355C"/></g><g><path d="M109,106.5H19c-9,0-16.2-7.3-16.2-16.2V37.8c0-9,7.3-16.2,16.2-16.2h90c9,0,16.2,7.3,16.2,16.2v52.5    C125.2,99.2,118,106.5,109,106.5z M19,24c-7.6,0-13.8,6.2-13.8,13.8v52.5c0,7.6,6.2,13.8,13.8,13.8h90c7.6,0,13.8-6.2,13.8-13.8    V37.8c0-7.6-6.2-13.8-13.8-13.8H19z" fill="#62355C"/></g><g><path d="M64,87.8c-1,0-2.1-0.1-3.1-0.2c-10.5-1.3-19.1-9.9-20.5-20.5c-0.9-6.8,1.2-13.7,5.7-18.8    c5.2-5.9,13-8.8,20.9-7.9c10.5,1.3,19.1,9.9,20.5,20.5c0.9,6.8-1.2,13.7-5.7,18.8C77.3,84.8,70.8,87.8,64,87.8z M64,42.8    c-6.1,0-11.9,2.6-15.9,7.2c-4.1,4.6-5.9,10.6-5.1,16.8c1.2,9.4,8.9,17.1,18.3,18.3c7,0.9,14.1-1.8,18.7-7    c4.1-4.6,5.9-10.6,5.1-16.8c-1.2-9.4-8.9-17.1-18.3-18.3C65.8,42.8,64.9,42.8,64,42.8z" fill="#62355C"/></g><g><path d="    M63.9,76.4" fill="none" stroke="#404243" stroke-linecap="round" stroke-linejoin="round" stroke-miterlimit="10" stroke-width="2.5"/></g><g><path d="M71,66.3c-0.6-0.9-1.3-1.7-2.2-2.3c-0.8-0.5-1.7-0.9-2.6-1.2c-0.8-0.2-1.6-0.5-2.4-0.7    c-0.7-0.2-1.5-0.4-2.2-0.7c-0.5-0.2-1-0.5-1.4-0.8c-0.3-0.3-0.6-0.7-0.8-1.2c-0.1-0.3-0.3-0.9-0.3-2c0-0.6,0.1-1.1,0.3-1.6    c0.2-0.5,0.5-1,0.8-1.3c0.4-0.4,0.9-0.7,1.5-1c1.3-0.5,3.3-0.5,4.5,0c0.6,0.3,1,0.6,1.4,1c0.4,0.4,0.7,1,0.9,1.6    c0.2,0.8,1.1,1.2,1.9,1c0.8-0.3,1.2-1.1,1-1.9c-0.3-1-0.8-1.8-1.4-2.6c-0.7-0.8-1.5-1.4-2.5-1.8c-0.6-0.3-1.3-0.4-2-0.5v-0.8    c0-0.8-0.7-1.5-1.5-1.5s-1.5,0.7-1.5,1.5v0.8c-0.7,0.1-1.4,0.3-1.9,0.5c-1,0.4-1.8,1-2.5,1.7c-0.6,0.7-1.1,1.5-1.5,2.4    c-0.3,0.9-0.5,1.8-0.5,2.7c0,1.3,0.2,2.4,0.6,3.2c0.4,0.9,0.9,1.6,1.6,2.2c0.7,0.6,1.4,1,2.3,1.4c0.8,0.3,1.6,0.6,2.5,0.8    c0.8,0.2,1.6,0.4,2.4,0.7c0.7,0.2,1.3,0.5,1.9,0.8c0.5,0.3,0.9,0.8,1.3,1.3c0.3,0.5,0.5,1.3,0.5,2.2c0,0.7-0.1,1.3-0.3,1.9    c-0.2,0.6-0.5,1.1-0.9,1.5c-0.4,0.4-0.8,0.7-1.4,1c-1.1,0.5-2.8,0.5-4.2,0.1c-0.6-0.2-1.1-0.5-1.6-0.9c-0.5-0.4-0.9-1-1.2-1.7    c-0.3-0.8-1.2-1.1-2-0.8c-0.8,0.3-1.1,1.2-0.8,2c0.5,1.1,1.1,2,1.9,2.8c0.8,0.7,1.7,1.2,2.7,1.6c0.3,0.1,0.7,0.2,1.1,0.2v0.9    c0,0.8,0.7,1.5,1.5,1.5s1.5-0.7,1.5-1.5v-0.8c0.8-0.1,1.5-0.2,2.1-0.5c1-0.4,1.8-1,2.5-1.7c0.7-0.7,1.2-1.6,1.5-2.6    c0.3-0.9,0.4-1.8,0.4-2.8C72,68.6,71.7,67.3,71,66.3z" fill="#62355C"/></g></g></svg>