<?xml version="1.0" ?><!DOCTYPE svg  PUBLIC '-//W3C//DTD SVG 1.1//EN'  'http://www.w3.org/Graphics/SVG/1.1/DTD/svg11.dtd'><svg enable-background="new 0 0 128 128" id="Слой_1" version="1.1" viewBox="0 0 128 128" xml:space="preserve" xmlns="http://www.w3.org/2000/svg" xmlns:xlink="http://www.w3.org/1999/xlink"><g><g><g><ellipse cx="98.6" cy="93.6" fill="#7EACB8" rx="12.3" ry="12.4"/></g><g><ellipse cx="23.7" cy="93.6" fill="#938993" rx="12.3" ry="12.4"/></g><g><path d="M23.7,107.3c-7.5,0-13.6-6.1-13.6-13.7s6.1-13.7,13.6-13.7s13.6,6.1,13.6,13.7S31.2,107.3,23.7,107.3z      M23.7,82.4c-6.1,0-11.1,5-11.1,11.2s5,11.2,11.1,11.2s11.1-5,11.1-11.2S29.8,82.4,23.7,82.4z" fill="#62355C"/></g><path d="M31.7,84.1c1.9,2.2,3,5,3,8.2c0,6.9-5.5,12.4-12.3,12.4c-3,0-5.8-1.1-7.9-2.9    c2.3,2.6,5.6,4.3,9.3,4.3c6.8,0,12.3-5.6,12.3-12.4C36.1,89.8,34.4,86.4,31.7,84.1z" fill="#593055" opacity="0.2"/><path d="M23.7,101.6c-4.3,0-7.9-3.6-7.9-8s3.5-8,7.9-8s7.9,3.6,7.9,8S28.1,101.6,23.7,101.6z" fill="#593055" opacity="0.2"/><g><ellipse cx="21.8" cy="91.6" fill="#373637" rx="0.7" ry="0.7"/></g><g><ellipse cx="21.8" cy="95.6" fill="#373637" rx="0.7" ry="0.7"/></g><g><ellipse cx="25.7" cy="95.6" fill="#373637" rx="0.7" ry="0.7"/></g><g><ellipse cx="25.7" cy="91.6" fill="#373637" rx="0.7" ry="0.7"/></g><g><path d="M124,28.7c0-3.8-3-6.8-6.8-6.8l-76.6,0c-3.8,0-5.2,3.2-6.8,6.7L21.7,55.4c-0.6,1.6-1.8,2.8-3.3,3.5     L7.9,64C5.5,65.1,4,67.5,4,70.1l0,19.5h3.6c0,0,0.1,0,0.2,0c1.8-7.2,8.2-12.5,15.9-12.5c9,0,16.4,7.4,16.4,16.5c0,0,0,0.1,0,0.1     h39.5h0h2.5c0,0,0-0.1,0-0.1c0-9.1,7.4-16.5,16.4-16.5c8.3,0,15.1,6.2,16.2,14.3h2.4c3.8,0,6.8-3,6.8-6.8L124,28.7z M46.9,56.8     c0,0.8-0.7,1.5-1.5,1.5H30.1c-1,0-1.6-1-1.3-1.9c2.4-5.9,8.4-21.2,10.2-25.6c0.2-0.6,0.8-0.9,1.4-0.9h5c0.8,0,1.5,0.7,1.5,1.5     L46.9,56.8z" fill="#D6D6D6"/></g><g><path d="M124,28.7c0-3.8-3-6.8-6.8-6.8l-54.2,0c-3.8,0-6.7,3.3-6.4,7.1c0,0,0,0.1,0,0.1v24.4     c0.5,3.8,3.7,6.6,7.4,6.6h60L124,28.7z" fill="#C27DB5"/></g><g><path d="M124,61.4H64c-4.4,0-8.1-3.3-8.7-7.7c0-0.1,0-0.1,0-0.2V29.1c0-4.7,3.8-8.5,8.5-8.5l53.4,0     c4.4,0,8,3.6,8,8l0,31.4c0,0.3-0.1,0.6-0.4,0.9C124.6,61.3,124.3,61.4,124,61.4z M57.8,53.5c0.4,3.1,3.1,5.4,6.2,5.4h58.8l0-30.2     c0-3.1-2.5-5.5-5.5-5.5l-53.4,0c-3.3,0-6,2.7-6,6V53.5z" fill="#62355C"/></g><g><path d="M82.2,95C82.2,95,82.2,95,82.2,95h-42c-0.3,0-0.7-0.1-0.9-0.4c-0.2-0.2-0.4-0.6-0.4-0.9c0,0,0-0.1,0-0.1     c0-8.4-6.8-15.2-15.1-15.2c-6.9,0-13,4.7-14.7,11.6c-0.2,0.6-0.7,1-1.3,0.9l-0.2,0l-3.5,0c-0.7,0-1.2-0.6-1.2-1.2l0-19.5     c0-3.1,1.8-5.9,4.6-7.3l10.5-5c1.2-0.6,2.2-1.6,2.7-2.9l12.2-26.8c1.7-3.7,3.4-7.5,7.9-7.5l76.6,0c4.4,0,8,3.6,8,8l0,55.9     c0,2.2-0.8,4.2-2.4,5.7c-1.5,1.5-3.5,2.4-5.7,2.4h-2.4c-0.6,0-1.2-0.5-1.2-1.1c-1-7.5-7.5-13.2-15-13.2     c-8.3,0-15.1,6.8-15.1,15.1c0,0.1,0,0.2,0,0.3C83.4,94.4,82.9,95,82.2,95z M41.4,92.5h39.6c0.6-9.3,8.3-16.6,17.6-16.6     c8.4,0,15.7,6.1,17.3,14.3h1.4c1.5,0,2.9-0.6,3.9-1.6s1.6-2.4,1.6-3.9l0-55.9c0-3.1-2.5-5.5-5.5-5.5l-76.6,0     c-2.8,0-4,2.3-5.6,5.9L22.8,55.9c-0.7,1.8-2.1,3.3-3.9,4.1l-10.5,5c-1.9,0.9-3.2,2.9-3.2,5l0,18.3h1.7     c2.3-7.4,9.1-12.5,16.8-12.5C33.1,75.9,40.8,83.2,41.4,92.5z M45.4,59.6H30.1c-0.9,0-1.7-0.4-2.2-1.2c-0.5-0.7-0.6-1.6-0.2-2.4     c1.3-3.2,3.7-9.2,5.8-14.5c1.8-4.7,3.6-9.1,4.4-11.1c0.4-1,1.4-1.7,2.5-1.7h5c1.5,0,2.8,1.2,2.8,2.8v25.4     C48.1,58.3,46.9,59.6,45.4,59.6z M40.4,31.2c-0.1,0-0.2,0.1-0.2,0.1c-0.8,2-2.6,6.4-4.4,11C33.6,48,31.3,53.7,30,56.9     c0,0,0,0.1,0,0.1c0,0,0.1,0,0.1,0h15.3c0.1,0,0.2-0.1,0.2-0.2V31.4c0-0.1-0.1-0.2-0.2-0.2H40.4z" fill="#62355C"/></g><g><ellipse cx="98.6" cy="93.6" fill="#938993" rx="12.3" ry="12.4"/></g><g><path d="M98.6,107.3c-7.5,0-13.6-6.1-13.6-13.7s6.1-13.7,13.6-13.7s13.6,6.1,13.6,13.7S106,107.3,98.6,107.3z      M98.6,82.4c-6.1,0-11.1,5-11.1,11.2s5,11.2,11.1,11.2s11.1-5,11.1-11.2S104.7,82.4,98.6,82.4z" fill="#62355C"/></g><path d="M106.5,84.1c1.9,2.2,3,5,3,8.2c0,6.9-5.5,12.4-12.3,12.4c-3,0-5.8-1.1-7.9-2.9    c2.3,2.6,5.6,4.3,9.3,4.3c6.8,0,12.3-5.6,12.3-12.4C110.9,89.8,109.2,86.4,106.5,84.1z" fill="#593055" opacity="0.2"/><path d="M98.6,86.7c-3.8,0-6.9,3.1-6.9,7s3.1,7,6.9,7s6.9-3.1,6.9-7S102.4,86.7,98.6,86.7z" fill="#593055" opacity="0.2"/><g><path d="M23.7,102.8c-5,0-9.1-4.1-9.1-9.2s4.1-9.2,9.1-9.2s9.1,4.1,9.1,9.2S28.8,102.8,23.7,102.8z M23.7,86.9     c-3.7,0-6.6,3-6.6,6.7s3,6.7,6.6,6.7s6.6-3,6.6-6.7S27.4,86.9,23.7,86.9z" fill="#62355C"/></g><g><path d="M98.6,101.9c-4.5,0-8.1-3.7-8.1-8.2s3.7-8.2,8.1-8.2s8.1,3.7,8.1,8.2S103,101.9,98.6,101.9z M98.6,87.9     c-3.1,0-5.6,2.6-5.6,5.7s2.5,5.7,5.6,5.7s5.6-2.6,5.6-5.7S101.7,87.9,98.6,87.9z" fill="#62355C"/></g><g><ellipse cx="96.6" cy="91.6" fill="#373637" rx="0.7" ry="0.7"/></g><g><ellipse cx="96.6" cy="95.6" fill="#373637" rx="0.7" ry="0.7"/></g><g><ellipse cx="100.5" cy="95.6" fill="#373637" rx="0.7" ry="0.7"/></g><g><ellipse cx="100.5" cy="91.6" fill="#373637" rx="0.7" ry="0.7"/></g><g><ellipse cx="13.2" cy="70.7" fill="#62355C" rx="1.5" ry="1.5"/></g></g><g><path d="M71.7,33.7h-8.3c-2.1,0-3.1,1.1-3.1,3.2v13.3c0,1.1,0.8,1.9,2,1.9c1.2,0,2-0.8,2-1.9v-5.8h6.3    c1,0,1.8-0.8,1.8-1.9c0-1.1-0.7-1.9-1.8-1.9h-6.3v-3.2h7.5c1.1,0,1.9-0.8,1.9-1.9C73.5,34.5,72.8,33.7,71.7,33.7z" fill="#FFFFFF"/><path d="M89.4,48.3c-1-2.4-1.6-4-2.4-5.1c1.5-0.9,2.3-2.4,2.3-4.4c0-3.2-2.2-5.2-5.7-5.2h-4.9    c-1.4,0-3.1,0.6-3.1,3.3v13.3c0,1.1,0.8,1.9,2,1.9c1.2,0,2-0.8,2-1.9v-5.6h2.9c1.3,0,1.7,0.8,3.3,4.9l0.5,1.3    c0.3,0.7,1,1.2,1.8,1.2c0.2,0,0.5,0,0.7-0.1c0.9-0.2,1.4-0.9,1.4-1.8c0-0.2,0-0.4-0.1-0.7L89.4,48.3z M79.5,37.4h4    c1.3,0,1.8,0.5,1.8,1.8c0,1.1-0.7,1.8-2,1.8h-3.8L79.5,37.4z" fill="#FFFFFF"/><path d="M103.5,48.2l-7.3,0v-3.8h6.2c1,0,1.8-0.8,1.8-1.9c0-1.1-0.8-1.9-1.8-1.9h-6.2l0-3.1h7.1    c1.1,0,1.8-0.8,1.8-1.9c0-1.1-0.8-1.9-1.8-1.9h-7.9c-1.4,0-3.1,0.6-3.1,3.3v11.8c0,2.7,1.7,3.2,3.1,3.2h8.1c1,0,1.8-0.8,1.8-1.9    C105.3,49,104.5,48.2,103.5,48.2z" fill="#FFFFFF"/><path d="M118.6,48.2l-7.3,0v-3.8h6.2c1,0,1.8-0.8,1.8-1.9c0-1.1-0.8-1.9-1.8-1.9h-6.2l0-3.1h7.1    c1.1,0,1.8-0.8,1.8-1.9c0-1.1-0.8-1.9-1.8-1.9h-7.9c-1.4,0-3.1,0.6-3.1,3.3v11.8c0,2.7,1.7,3.2,3.1,3.2h8.1c1,0,1.8-0.8,1.8-1.9    C120.5,49,119.7,48.2,118.6,48.2z" fill="#FFFFFF"/></g><path d="M124,28.7c0-3.8-3-6.8-6.8-6.8l-76.6,0c0,0,0,0,0,0l67.6,0c3.8,0,6.8,3,6.8,6.8l0,55.9   c0,1.3-0.4,2.5-1,3.5c0.4,1,0.6,2.1,0.8,3.3h2.4c3.8,0,6.8-3,6.8-6.8L124,28.7z" fill="#593055" opacity="0.2"/><g><path d="M46.9,87.4c-0.7,0-1.2-0.6-1.2-1.2V65.8c0-0.7,0.6-1.2,1.2-1.2s1.2,0.6,1.2,1.2v20.3    C48.1,86.8,47.6,87.4,46.9,87.4z" fill="#62355C"/></g></g></svg>