<?xml version="1.0" ?><!DOCTYPE svg  PUBLIC '-//W3C//DTD SVG 1.1//EN'  'http://www.w3.org/Graphics/SVG/1.1/DTD/svg11.dtd'><svg enable-background="new 0 0 128 128" id="Слой_1" version="1.1" viewBox="0 0 128 128" xml:space="preserve" xmlns="http://www.w3.org/2000/svg" xmlns:xlink="http://www.w3.org/1999/xlink"><g><g><g><g><path d="M112.9,76.8H64.1c-1.7,0-3.1-1.4-3.1-3.1s1.4-3.1,3.1-3.1h48.8c1.7,0,3.1,1.4,3.1,3.1      S114.6,76.8,112.9,76.8z" fill="#F4877E"/></g></g><path d="M112.9,76.8H64.1c-1.7,0-3.1-1.4-3.1-3.1s1.4-3.1,3.1-3.1h48.8c1.7,0,3.1,1.4,3.1,3.1    S114.6,76.8,112.9,76.8z" fill="#593055" opacity="0.2"/><g><g><path d="M112.9,78H64.1c-2.4,0-4.4-2-4.4-4.4s2-4.4,4.4-4.4h48.8c2.4,0,4.4,2,4.4,4.4S115.3,78,112.9,78z       M64.1,71.8c-1,0-1.9,0.8-1.9,1.9s0.8,1.9,1.9,1.9h48.8c1,0,1.9-0.8,1.9-1.9s-0.8-1.9-1.9-1.9H64.1z" fill="#62355C"/></g></g><g><path d="M107.9,69.3C106,49.4,90.4,33,70.6,30.1c-6.4-0.9-12.5-0.5-18.2,1.1c-1.5,0.4-3.1,0.3-4.5-0.2l-13-4.6v11     c0,2-0.8,4-2.2,5.4c-4.4,4.5-7.9,10-10.1,16.1c-0.8,2.2-2.9,3.8-5.2,3.8h-0.9c-2.4,0-4.4,2-4.4,4.4v13.2c0,2.4,2,4.4,4.4,4.4h0.9     c2.4,0,4.4,1.5,5.2,3.8c2.2,6.1,5.7,11.6,10.1,16.1C34.2,106,35,108,35,110l0,9.6c0,2.4,2,4.4,4.4,4.4h13.2c2.4,0,4.4-2,4.4-4.4     v0c0-1.3,1.1-2.3,2.4-2.2c1.6,0.2,3.1,0.3,4.7,0.3s3.2-0.1,4.7-0.3c1.3-0.1,2.4,0.9,2.4,2.2v0c0,2.4,2,4.4,4.4,4.4h13.2     c2.4,0,4.4-2,4.4-4.4l0-9.6c0-2.1,0.8-4,2.3-5.5C104.2,95.6,109.2,83,107.9,69.3z" fill="#E1ADCF"/></g><g><path d="M88.8,125.2H75.6c-3.1,0-5.7-2.5-5.7-5.7c0-0.6-0.5-1-1-0.9c-3.2,0.4-6.5,0.4-9.7,0c-0.6-0.1-1,0.4-1,0.9     c0,3.1-2.5,5.7-5.7,5.7H39.3c-3.1,0-5.7-2.5-5.7-5.7l0-9.6c0-1.7-0.7-3.4-1.9-4.6c-4.6-4.7-8.2-10.4-10.4-16.6     c-0.6-1.8-2.3-2.9-4.1-2.9h-0.9c-3.1,0-5.7-2.5-5.7-5.7V67c0-3.1,2.5-5.7,5.7-5.7h0.9c1.8,0,3.4-1.2,4.1-2.9     c2.2-6.1,5.8-11.9,10.4-16.5c1.2-1.2,1.9-2.8,1.9-4.6v-11c0-0.4,0.2-0.8,0.5-1c0.3-0.2,0.8-0.3,1.1-0.2l13,4.6     c1.3,0.4,2.6,0.5,3.8,0.2c6.1-1.7,12.4-2,18.7-1.1c20.2,3,36.3,19.9,38.3,40.3c1.3,13.5-3.4,26.7-12.8,36.2     c-1.2,1.3-1.9,2.9-1.9,4.6l0,9.6C94.5,122.7,92,125.2,88.8,125.2z M69,116.2c1.9,0,3.4,1.5,3.4,3.4c0,1.7,1.4,3.2,3.2,3.2h13.2     c1.7,0,3.2-1.4,3.2-3.2l0-9.6c0-2.4,0.9-4.7,2.6-6.4c8.9-9.1,13.3-21.5,12.1-34.2c-1.9-19.2-17.1-35.2-36.2-38     c-6-0.9-12-0.5-17.7,1.1c-1.7,0.5-3.5,0.4-5.3-0.3l-11.3-4.1v9.3c0,2.4-0.9,4.6-2.6,6.3c-4.3,4.4-7.7,9.8-9.8,15.6     c-1,2.7-3.6,4.6-6.4,4.6h-0.9c-1.7,0-3.2,1.4-3.2,3.2v13.2c0,1.7,1.4,3.2,3.2,3.2h0.9c2.9,0,5.4,1.8,6.4,4.6     c2.1,5.8,5.5,11.2,9.8,15.7c1.7,1.7,2.6,4,2.6,6.4l0,9.6c0,1.7,1.4,3.1,3.2,3.1h13.2c1.7,0,3.2-1.4,3.2-3.2c0-2,1.8-3.6,3.8-3.4     c3.1,0.3,6.1,0.3,9.2,0C68.8,116.2,68.9,116.2,69,116.2z" fill="#62355C"/></g><g><g opacity="0.1"><path d="M95.4,104.5c8.1-8.2,12.9-19.5,12.6-32c0-0.3,0-0.6,0-0.9c0-0.5-0.1-1-0.1-1.6c0-0.3,0-0.6-0.1-0.9      c-0.1-1-0.3-2-0.4-3.1c-0.1-0.3-0.1-0.6-0.2-1c-0.2-0.9-0.4-1.9-0.6-2.8c-0.1-0.3-0.2-0.6-0.3-0.9c-0.3-0.9-0.5-1.8-0.8-2.7      c-0.1-0.2-0.1-0.4-0.2-0.5c-0.3-0.9-0.7-1.8-1.1-2.7c-0.1-0.2-0.2-0.4-0.3-0.6c-0.5-1-0.9-1.9-1.5-2.8c-0.1-0.1-0.2-0.3-0.2-0.4      c-1.2-2-2.4-3.9-3.9-5.7c0,0,0,0,0-0.1c-0.7-0.9-1.5-1.7-2.3-2.6c-0.1-0.1-0.1-0.1-0.2-0.2c-0.8-0.8-1.6-1.6-2.4-2.4      c0,0-0.1-0.1-0.1-0.1c-0.8-0.7-1.7-1.4-2.5-2.1c-0.1,0-0.1-0.1-0.2-0.2c-0.8-0.6-1.7-1.2-2.6-1.8c-0.2-0.1-0.4-0.3-0.6-0.4      c-0.8-0.5-1.7-1-2.5-1.5c-0.3-0.1-0.6-0.3-0.8-0.4c-0.7-0.4-1.4-0.7-2.2-1c-0.4-0.2-0.7-0.3-1.1-0.5c-0.7-0.3-1.5-0.6-2.2-0.8      c-0.4-0.1-0.7-0.3-1.1-0.4c-0.9-0.3-1.8-0.5-2.7-0.7c-0.3-0.1-0.7-0.2-1-0.2c-1-0.2-2-0.4-3-0.6C70.4,30.1,70,30,69.7,30      c-0.4-0.1-0.8-0.1-1.3-0.2c-0.3,0-0.6,0-0.9-0.1c-0.5,0-0.9-0.1-1.4-0.1c-0.3,0-0.7,0-1,0c-0.4,0-0.8,0-1.2,0      c-1.5,0-2.9,0.1-4.3,0.3C81.6,32.3,98.8,51,98.8,73.7c0,13.2-5.8,24.9-14.9,33h0.1v12.9c0,2.4-2,4.4-4.4,4.4h9.3      c2.4,0,4.4-2,4.4-4.4l0-9.6C93.2,108,94,106,95.4,104.5z" fill="#62355C"/></g><g><path d="M61.6,117.6c0,0-0.1,0-0.1,0C61.5,117.6,61.5,117.6,61.6,117.6L61.6,117.6z" fill="#593055" opacity="0.2"/><g opacity="0.1"><path d="M58.1,117.6c-1.5,0-3,0-3.4,0c-2.4,0-4.8-0.2-7.2-0.6v2.5c0,2.4-2,4.4-4.4,4.4h9.3       c2.1,0,3.9-1.5,4.3-3.5c0.1-0.3,0.1-0.6,0.1-0.9C56.9,118.7,57.4,118,58.1,117.6z" fill="#62355C"/></g></g></g></g><g opacity="0.2"><path d="M97.3,57.2c1.4,0.8,1.9,2.7,1.1,4.1l-0.1,0.2c-0.8,1.4-2.7,1.9-4.1,1.1L59,42.2c-1.4-0.8-1.9-2.7-1.1-4.1    l0.1-0.2c0.8-1.4,2.7-1.9,4.1-1.1" fill="#62355C"/></g><g><g><path d="M95.7,64.2c-0.7,0-1.4-0.2-2.1-0.6L58.4,43.3c-2-1.2-2.7-3.8-1.6-5.8l0.1-0.2c1.2-2,3.8-2.7,5.8-1.6     c0.6,0.3,0.8,1.1,0.5,1.7c-0.3,0.6-1.1,0.8-1.7,0.5c-0.4-0.2-0.9-0.3-1.3-0.2c-0.4,0.1-0.8,0.4-1.1,0.8L59,38.8     c-0.2,0.4-0.3,0.9-0.2,1.3s0.4,0.8,0.8,1.1l35.1,20.3c0.4,0.2,0.9,0.3,1.3,0.2c0.4-0.1,0.8-0.4,1.1-0.8l0.1-0.2     c0.2-0.4,0.3-0.9,0.2-1.3c-0.1-0.4-0.4-0.8-0.8-1.1c-0.6-0.3-0.8-1.1-0.5-1.7c0.3-0.6,1.1-0.8,1.7-0.5c1,0.6,1.7,1.5,2,2.6     s0.1,2.2-0.4,3.2l-0.1,0.2C98.6,63.4,97.1,64.2,95.7,64.2z" fill="#62355C"/></g></g><g><g><circle cx="89.4" cy="27.3" fill="#F6CD29" r="23.3"/></g><g><circle cx="89.4" cy="27.3" fill="#FEE444" r="23.3"/></g><g><path d="M89.4,51.8c-13.5,0-24.5-11-24.5-24.5c0-13.5,11-24.5,24.5-24.5s24.5,11,24.5,24.5     C114,40.8,103,51.8,89.4,51.8z M89.4,5.2c-12.1,0-22,9.9-22,22c0,12.1,9.9,22,22,22s22-9.9,22-22C111.5,15.1,101.6,5.2,89.4,5.2z     " fill="#62355C"/></g><g opacity="0.3"><path d="M89.4,9.2c-9.9,0-18,8.1-18,18s8.1,18,18,18s18-8.1,18-18S99.4,9.2,89.4,9.2z" fill="#F6F7F6"/></g><g><path d="M89.4,46.6c-10.6,0-19.3-8.7-19.3-19.3C70.1,16.6,78.8,8,89.4,8s19.3,8.7,19.3,19.3     C108.7,37.9,100.1,46.6,89.4,46.6z M89.4,10.5c-9.3,0-16.8,7.5-16.8,16.8c0,9.3,7.5,16.8,16.8,16.8s16.8-7.5,16.8-16.8     C106.2,18,98.7,10.5,89.4,10.5z" fill="#62355C"/></g><g><path d="M93.1,27.5c-0.6-0.4-1.3-0.7-2-0.9c-0.6-0.2-1.3-0.4-1.9-0.6c-0.6-0.2-1.2-0.3-1.7-0.6     c-0.4-0.2-0.8-0.4-1.1-0.7c-0.3-0.2-0.5-0.6-0.7-1c-0.1-0.3-0.3-0.8-0.3-1.6c0-0.4,0.1-0.9,0.2-1.3c0.2-0.4,0.4-0.8,0.7-1.1     c0.3-0.3,0.7-0.6,1.2-0.8c0.5-0.2,1.1-0.3,1.8-0.3c0.7,0,1.3,0.1,1.8,0.3c0.5,0.2,0.9,0.5,1.2,0.8c0.3,0.4,0.5,0.8,0.7,1.3     c0.2,0.5,0.8,0.8,1.3,0.7c0.5-0.2,0.8-0.7,0.7-1.3c-0.2-0.7-0.6-1.4-1.1-2c-0.5-0.6-1.1-1-1.9-1.4c-0.5-0.2-1-0.4-1.6-0.4v-0.7     c0-0.6-0.5-1-1-1c-0.6,0-1,0.5-1,1v0.7c-0.6,0.1-1.1,0.2-1.6,0.4c-0.8,0.3-1.4,0.7-1.9,1.3c-0.5,0.5-0.9,1.1-1.1,1.8     c-0.2,0.7-0.4,1.3-0.4,2c0,1,0.2,1.8,0.5,2.5c0.3,0.7,0.7,1.2,1.2,1.7c0.5,0.4,1.1,0.8,1.7,1c0.6,0.2,1.3,0.5,1.9,0.6     c0.6,0.2,1.3,0.4,1.9,0.5c0.6,0.2,1.1,0.4,1.5,0.7c0.4,0.3,0.8,0.6,1,1.1c0.3,0.4,0.4,1.1,0.4,1.8c0,0.5-0.1,1.1-0.2,1.5     c-0.2,0.5-0.4,0.9-0.7,1.2c-0.3,0.3-0.7,0.6-1.2,0.8c-0.5,0.2-1.1,0.3-1.7,0.3c-0.6,0-1.1-0.1-1.6-0.2c-0.5-0.2-0.9-0.4-1.3-0.8     c-0.4-0.4-0.7-0.8-1-1.4c-0.2-0.5-0.8-0.8-1.3-0.5c-0.5,0.2-0.8,0.8-0.5,1.3c0.4,0.8,0.9,1.6,1.5,2.1c0.6,0.5,1.3,1,2.1,1.2     c0.3,0.1,0.6,0.2,0.9,0.2v0.8c0,0.6,0.5,1,1,1c0.6,0,1-0.5,1-1v-0.7c0.6-0.1,1.2-0.2,1.8-0.4c0.8-0.3,1.4-0.8,1.9-1.3     c0.5-0.6,0.9-1.2,1.1-2c0.2-0.7,0.3-1.4,0.3-2.2c0-1.1-0.2-2.1-0.7-2.9C94.4,28.5,93.8,27.9,93.1,27.5z" fill="#62355C"/></g><g><path d="     M89.4,35.8" fill="none" stroke="#404243" stroke-linecap="round" stroke-linejoin="round" stroke-miterlimit="10" stroke-width="2.5"/></g></g><g><circle cx="39.1" cy="57.3" fill="#F1EBAC" r="3.9"/></g><g><path d="M39.1,62.5c-2.8,0-5.1-2.3-5.1-5.1s2.3-5.1,5.1-5.1c2.8,0,5.1,2.3,5.1,5.1S41.9,62.5,39.1,62.5z     M39.1,54.7c-1.4,0-2.6,1.2-2.6,2.6s1.2,2.6,2.6,2.6c1.5,0,2.6-1.2,2.6-2.6S40.5,54.7,39.1,54.7z" fill="#62355C"/></g></g></svg>