<?xml version="1.0" ?><!DOCTYPE svg  PUBLIC '-//W3C//DTD SVG 1.1//EN'  'http://www.w3.org/Graphics/SVG/1.1/DTD/svg11.dtd'><svg enable-background="new 0 0 128 128" id="Слой_1" version="1.1" viewBox="0 0 128 128" xml:space="preserve" xmlns="http://www.w3.org/2000/svg" xmlns:xlink="http://www.w3.org/1999/xlink"><g><g><path d="M106.6,112.7h-86c-8.3,0-15-6.7-15-15V46.1c0-8.3,6.7-15,15-15h86c8.3,0,15,6.7,15,15v51.7    C121.6,106,114.9,112.7,106.6,112.7z" fill="#AFA3AF"/></g><path d="M18.3,85.9h91.3c4.4,0,8.5-1.4,11.9-3.9v-36c0-8.3-6.7-15-15-15h-86c-8.3,0-15,6.7-15,15   v35.4C9.2,84.3,13.6,85.9,18.3,85.9z" fill="#593055" opacity="0.2"/><g><path d="M106.6,113.7h-86c-8.8,0-16-7.2-16-16V46.1c0-8.8,7.2-16,16-16h86c8.8,0,16,7.2,16,16v51.7    C122.6,106.5,115.4,113.7,106.6,113.7z M20.6,32.1c-7.7,0-14,6.3-14,14v51.7c0,7.7,6.3,14,14,14h86c7.7,0,14-6.3,14-14V46.1    c0-7.7-6.3-14-14-14H20.6z" fill="#62355C"/></g><g><path d="M63.6,91.2L63.6,91.2c-2.8,0-5-2.2-5-5v-5.7h10v5.7C68.6,88.9,66.4,91.2,63.6,91.2z" fill="#FFFFFF"/></g><g><path d="M63.6,92.2c-3.3,0-6-2.7-6-6v-6.2c0-0.6,0.4-1,1-1h10c0.6,0,1,0.4,1,1v6.2C69.6,89.5,66.9,92.2,63.6,92.2z     M59.6,80.9v5.2c0,2.2,1.8,4,4,4s4-1.8,4-4v-5.2H59.6z" fill="#62355C"/></g><g><path d="M30.9,26.8H18.6c-7.8,0-14.2,6.3-14.3,14.2L4,65.4c-0.1,8,6.3,14.5,14.3,14.5h91.3c8,0,14.4-6.5,14.3-14.5    l-0.3-24.5c-0.1-7.8-6.5-14.2-14.3-14.2H96.3H30.9" fill="#938993"/></g><g><path d="M109.7,80.9H18.3c-4.1,0-8-1.6-10.9-4.6C4.5,73.4,3,69.5,3,65.4l0.3-24.5c0.1-8.4,7-15.1,15.3-15.1h90.8    c8.4,0,15.2,6.8,15.3,15.1l0.3,24.5c0,4.1-1.5,8-4.4,11C117.7,79.3,113.8,80.9,109.7,80.9z M18.6,27.8c-7.3,0-13.2,5.9-13.3,13.2    L5,65.4c0,3.6,1.3,7,3.8,9.5c2.5,2.6,5.9,4,9.5,4h91.3c3.6,0,7-1.4,9.5-4c2.5-2.6,3.9-5.9,3.8-9.5l-0.3-24.5    c-0.1-7.3-6.1-13.2-13.3-13.2H18.6z" fill="#62355C"/></g><g><path d="M63.7,63.2c-0.1,0-0.1,0-0.2,0c-4.7,0-8.5,3.9-8.5,8.4l0,8.8h17.2l0-8.8C72.3,67.1,68.5,63.2,63.7,63.2z" fill="#EC7BB0"/></g><g><path d="M72.2,80.9H55c-0.3,0-0.5-0.1-0.7-0.3c-0.2-0.2-0.3-0.4-0.3-0.7l0.1-8.3c0-5.2,4.3-9.4,9.5-9.4h0.2    c5.2,0,9.5,4.2,9.5,9.4l-0.1,8.3C73.2,80.5,72.8,80.9,72.2,80.9z M56,78.9h15.2l0-7.3c0-4.1-3.4-7.4-7.5-7.4h-0.2    c-4.1,0-7.5,3.3-7.5,7.4L56,78.9z" fill="#62355C"/></g><g><path d="M30.9,26.8" fill="#938993"/></g><g><path d="M85.1,27.8c-0.6,0-1-0.4-1-1c0-3.3-0.8-5.7-2.4-7.3c-3.2-3.2-9.6-3.2-17-3.2l-1.1,0l-1.1,0    c-7.4,0-13.8,0-17,3.2c-1.6,1.6-2.4,4-2.4,7.3c0,0.6-0.4,1-1,1s-1-0.4-1-1c0-3.9,1-6.7,3-8.7c3.8-3.8,10.5-3.8,18.4-3.8l1.1,0    l1.1,0c7.8,0,14.6,0,18.4,3.8c2,2,3,4.8,3,8.7C86.1,27.3,85.6,27.8,85.1,27.8z" fill="#62355C"/></g></g></svg>